<svg version="1.1" id="Layer_1" xmlns="http://www.w3.org/2000/svg" xmlns:xlink="http://www.w3.org/1999/xlink" x="0px" y="0px"
	 viewBox="0 0 512 512" style="enable-background:new 0 0 512 512;" xml:space="preserve">
<path style="fill:#FFE49C;" d="M472.178,477.38H39.822C17.864,477.38,0,459.515,0,437.557V136.772
	c0-9.425,7.641-17.067,17.067-17.067h477.867c9.425,0,17.067,7.641,17.067,17.067v300.785
	C512,459.515,494.136,477.38,472.178,477.38z"/>
<path style="fill:#FFD155;" d="M494.933,119.706H256V477.38h216.178c21.958,0,39.822-17.864,39.822-39.822V136.772
	C512,127.347,504.359,119.706,494.933,119.706z"/>
<path style="fill:#8DC3E9;" d="M512,153.839H0V74.443C0,52.449,17.829,34.62,39.822,34.62h432.356
	C494.171,34.62,512,52.449,512,74.443V153.839z"/>
<g>
	<circle style="fill:#FFE49C;" cx="71.805" cy="94.231" r="12.836"/>
	<circle style="fill:#FFE49C;" cx="112.959" cy="94.231" r="12.836"/>
	<circle style="fill:#FFE49C;" cx="154.112" cy="94.231" r="12.836"/>
</g>
<g>
	<path style="fill:#8DC3E9;" d="M141.888,392.487l-65.446-65.447c-6.665-6.665-6.665-17.471,0-24.136l65.446-65.446
		c15.946-15.947,40.099,8.173,24.136,24.136l-53.379,53.378l53.379,53.379C181.968,384.296,157.793,408.393,141.888,392.487z"/>
	<path style="fill:#8DC3E9;" d="M196.227,391.681l97.693-169.209c11.272-19.528,40.852-2.489,29.561,17.067l-97.693,169.209
		C214.513,428.278,184.939,411.232,196.227,391.681z"/>
</g>
<g>
	<path style="fill:#48AEE2;" d="M512,74.443c0-21.993-17.829-39.822-39.822-39.822H256v119.219h256V74.443z"/>
	<path style="fill:#48AEE2;" d="M345.975,368.351l53.38-53.379l-53.38-53.379c-15.945-15.944,8.168-40.104,24.136-24.136
		l65.447,65.447c6.661,6.659,6.665,17.472,0,24.136l-65.447,65.447C354.232,408.364,329.853,384.471,345.975,368.351z"/>
	<path style="fill:#48AEE2;" d="M293.92,222.472L256,288.151v68.266l67.48-116.878C334.777,219.973,305.19,202.95,293.92,222.472z"
		/>
</g>
<g>
</g>
<g>
</g>
<g>
</g>
<g>
</g>
<g>
</g>
<g>
</g>
<g>
</g>
<g>
</g>
<g>
</g>
<g>
</g>
<g>
</g>
<g>
</g>
<g>
</g>
<g>
</g>
<g>
</g>
</svg>
