<svg version="1.0" xmlns="http://www.w3.org/2000/svg"
 width="35px" height="35px" viewBox="0 0 226.000000 223.000000"
 preserveAspectRatio="xMidYMid meet">
	<g transform="translate(0.000000,233.000000) scale(0.100000,-0.100000)"
	fill="#000000" stroke="none">
	<path d="M988 1991 c-81 -26 -135 -61 -196 -125 -100 -106 -147 -257 -123
	-394 41 -229 232 -392 461 -392 282 0 505 256 463 531 -21 133 -112 273 -221
	336 -107 63 -267 81 -384 44z"/>
	<path d="M733 1061 c-231 -121 -384 -326 -437 -584 -9 -42 -16 -97 -16 -122
	l0 -45 850 0 850 0 0 45 c0 25 -7 80 -16 122 -54 260 -217 476 -449 590 l-60
	30 -44 -28 c-81 -52 -164 -74 -281 -74 -117 0 -200 22 -282 74 l-45 29 -70
	-37z"/>
	</g>
</svg>